<svg id="visual" viewBox="0 0 900 600" width="900" height="600" xmlns="http://www.w3.org/2000/svg" xmlns:xlink="http://www.w3.org/1999/xlink" version="1.1"><rect x="0" y="0" width="900" height="600" fill="#FFFFFF"></rect><path d="M0 373L15 378C30 383 60 393 90 395.2C120 397.3 150 391.7 180 395.3C210 399 240 412 270 412.3C300 412.7 330 400.3 360 394.7C390 389 420 390 450 387.2C480 384.3 510 377.7 540 375.7C570 373.7 600 376.3 630 383.5C660 390.7 690 402.3 720 406.8C750 411.3 780 408.7 810 409.3C840 410 870 414 885 416L900 418L900 601L885 601C870 601 840 601 810 601C780 601 750 601 720 601C690 601 660 601 630 601C600 601 570 601 540 601C510 601 480 601 450 601C420 601 390 601 360 601C330 601 300 601 270 601C240 601 210 601 180 601C150 601 120 601 90 601C60 601 30 601 15 601L0 601Z" fill="#f2b807"></path><path d="M0 458L15 450.2C30 442.3 60 426.7 90 426.8C120 427 150 443 180 447.2C210 451.3 240 443.7 270 435.8C300 428 330 420 360 423.7C390 427.3 420 442.7 450 446C480 449.3 510 440.7 540 435.7C570 430.7 600 429.3 630 428.7C660 428 690 428 720 430.5C750 433 780 438 810 436C840 434 870 425 885 420.5L900 416L900 601L885 601C870 601 840 601 810 601C780 601 750 601 720 601C690 601 660 601 630 601C600 601 570 601 540 601C510 601 480 601 450 601C420 601 390 601 360 601C330 601 300 601 270 601C240 601 210 601 180 601C150 601 120 601 90 601C60 601 30 601 15 601L0 601Z" fill="#a7c136"></path><path d="M0 481L15 479.2C30 477.3 60 473.7 90 470.3C120 467 150 464 180 467.2C210 470.3 240 479.7 270 485.2C300 490.7 330 492.3 360 491C390 489.7 420 485.3 450 478.7C480 472 510 463 540 461.2C570 459.3 600 464.7 630 467.8C660 471 690 472 720 473.5C750 475 780 477 810 476C840 475 870 471 885 469L900 467L900 601L885 601C870 601 840 601 810 601C780 601 750 601 720 601C690 601 660 601 630 601C600 601 570 601 540 601C510 601 480 601 450 601C420 601 390 601 360 601C330 601 300 601 270 601C240 601 210 601 180 601C150 601 120 601 90 601C60 601 30 601 15 601L0 601Z" fill="#62be69"></path><path d="M0 507L15 509.8C30 512.7 60 518.3 90 521.7C120 525 150 526 180 526.8C210 527.7 240 528.3 270 524.8C300 521.3 330 513.7 360 512.2C390 510.7 420 515.3 450 516.3C480 517.3 510 514.7 540 514.7C570 514.7 600 517.3 630 516.3C660 515.3 690 510.7 720 509.3C750 508 780 510 810 509.5C840 509 870 506 885 504.5L900 503L900 601L885 601C870 601 840 601 810 601C780 601 750 601 720 601C690 601 660 601 630 601C600 601 570 601 540 601C510 601 480 601 450 601C420 601 390 601 360 601C330 601 300 601 270 601C240 601 210 601 180 601C150 601 120 601 90 601C60 601 30 601 15 601L0 601Z" fill="#1eb493"></path><path d="M0 544L15 542.8C30 541.7 60 539.3 90 542.3C120 545.3 150 553.7 180 556.5C210 559.3 240 556.7 270 554.8C300 553 330 552 360 549.7C390 547.3 420 543.7 450 542.2C480 540.7 510 541.3 540 544.3C570 547.3 600 552.7 630 556.2C660 559.7 690 561.3 720 557.5C750 553.7 780 544.3 810 543C840 541.7 870 548.3 885 551.7L900 555L900 601L885 601C870 601 840 601 810 601C780 601 750 601 720 601C690 601 660 601 630 601C600 601 570 601 540 601C510 601 480 601 450 601C420 601 390 601 360 601C330 601 300 601 270 601C240 601 210 601 180 601C150 601 120 601 90 601C60 601 30 601 15 601L0 601Z" fill="#21a5aa"></path></svg>